<svg xmlns="http://www.w3.org/2000/svg" viewBox="0 0 800 620" role="img" aria-labelledby="title desc">
  <title id="title">Paisaje rural Via Luna</title>
  <desc id="desc">Ilustracion de un hospedaje rural con montanas, lago y cabaña.</desc>
  <defs>
    <linearGradient id="sky" x1="0" x2="0" y1="0" y2="1">
      <stop offset="0%" stop-color="#eef8f1"/>
      <stop offset="100%" stop-color="#c9e5d2"/>
    </linearGradient>
    <linearGradient id="hill" x1="0" x2="1">
      <stop offset="0%" stop-color="#5b8f63"/>
      <stop offset="100%" stop-color="#2d604f"/>
    </linearGradient>
    <linearGradient id="water" x1="0" x2="1">
      <stop offset="0%" stop-color="#9bcab8"/>
      <stop offset="100%" stop-color="#5c9d8f"/>
    </linearGradient>
  </defs>
  <rect width="800" height="620" rx="44" fill="url(#sky)"/>
  <circle cx="613" cy="109" r="62" fill="#f4f0c7"/>
  <path d="M0 316C97 274 154 257 236 261c96 5 122 71 223 67 82-4 115-52 188-60 70-8 104 22 153 48v304H0V316Z" fill="#8ab8a2"/>
  <path d="M0 352c91 30 154 47 246 39 79-7 143-54 229-43 81 11 123 68 194 72 50 3 90-14 131-32v232H0V352Z" fill="url(#hill)"/>
  <path d="M0 445c90-15 169-10 241 21 72 30 110 43 191 34 95-11 120-57 210-49 63 6 101 37 158 66v103H0V445Z" fill="#224b3c"/>
  <ellipse cx="425" cy="459" rx="218" ry="60" fill="url(#water)" opacity=".85"/>
  <path d="M476 319l70-45 75 47v114h-145V319Z" fill="#e9d3a2"/>
  <path d="M467 325l80-58 87 59-14 20-74-48-66 44-13-17Z" fill="#7f5234"/>
  <rect x="527" y="360" width="37" height="75" rx="7" fill="#936247"/>
  <rect x="490" y="350" width="26" height="29" rx="5" fill="#d7f0e8"/>
  <rect x="582" y="350" width="26" height="29" rx="5" fill="#d7f0e8"/>
  <path d="M119 432c44-65 71-96 125-117 54-20 124-30 195 2 46 20 76 42 116 89-56 18-136 43-228 40-85-3-142-9-208-14Z" fill="#2a5948" opacity=".48"/>
  <path d="M109 486c52-31 96-44 158-47 70-3 122 13 196 52-70 19-132 30-198 30-58 0-106-11-156-35Z" fill="#dff1e5" opacity=".78"/>
  <g fill="#326452">
    <path d="M148 391l17-42 17 42h-11v35h-12v-35h-11Z"/>
    <path d="M194 377l22-52 22 52h-15v42h-14v-42h-15Z"/>
    <path d="M674 402l18-44 18 44h-12v37h-12v-37h-12Z"/>
  </g>
  <g fill="#fff" opacity=".55">
    <circle cx="153" cy="108" r="7"/>
    <circle cx="180" cy="131" r="4"/>
    <circle cx="222" cy="93" r="5"/>
    <circle cx="743" cy="170" r="5"/>
  </g>
</svg>
