<svg xmlns="http://www.w3.org/2000/svg" viewBox="0 0 420 260">
  <defs>
    <linearGradient id="bg" x1="0" x2="1" y1="0" y2="1">
      <stop offset="0%" stop-color="#eef8f1"/>
      <stop offset="100%" stop-color="#b7daca"/>
    </linearGradient>
  </defs>
  <rect width="420" height="260" rx="28" fill="url(#bg)"/>
  <ellipse cx="210" cy="188" rx="132" ry="35" fill="#6aa58d" opacity=".45"/>
  <rect x="118" y="145" width="182" height="48" rx="24" fill="#ffffff" opacity=".75"/>
  <ellipse cx="210" cy="154" rx="86" ry="28" fill="#d9f1e8"/>
  <path d="M192 116c0-16 11-27 24-34-4 14-2 21 9 31 12 11 22 20 22 37 0 12-8 26-21 32 4-13 2-20-8-30-13-12-26-21-26-36Z" fill="#5b8f63"/>
  <path d="M142 120c0-10 7-18 16-22-3 9-1 14 6 20 8 7 15 13 15 24 0 8-5 17-14 21 3-8 2-12-5-19-8-8-18-14-18-24Z" fill="#82b09a"/>
  <path d="M257 112c0-9 6-16 14-21-2 8-1 12 5 17 7 6 13 11 13 21 0 7-5 15-12 18 2-7 1-11-5-17-7-7-15-12-15-18Z" fill="#82b09a"/>
  <circle cx="117" cy="90" r="17" fill="#f4edd0"/>
  <circle cx="312" cy="70" r="10" fill="#d9eee6"/>
</svg>
