<svg xmlns="http://www.w3.org/2000/svg" viewBox="0 0 420 260">
  <defs>
    <linearGradient id="bg" x1="0" x2="1" y1="0" y2="1">
      <stop offset="0%" stop-color="#edf8f1"/>
      <stop offset="100%" stop-color="#93c0ac"/>
    </linearGradient>
  </defs>
  <rect width="420" height="260" rx="28" fill="url(#bg)"/>
  <path d="M0 173c44-21 94-35 151-27 44 6 67 27 111 27 53 0 76-23 119-25 14 0 26 1 39 5v82H0v-62Z" fill="#4a8169"/>
  <path d="M68 123l63-40 63 40v79H68v-79Z" fill="#f3e3b5"/>
  <path d="M59 126l71-52 74 51-10 14-65-42-61 39-9-10Z" fill="#805539"/>
  <rect x="118" y="149" width="27" height="53" rx="6" fill="#8e6245"/>
  <rect x="83" y="140" width="21" height="24" rx="4" fill="#d6efe5"/>
  <rect x="157" y="140" width="21" height="24" rx="4" fill="#d6efe5"/>
  <circle cx="332" cy="63" r="28" fill="#f7f1ca"/>
  <path d="M237 203c24-36 44-56 71-66 26-10 61-12 96 4-30 18-56 37-84 49-27 10-49 11-83 13Z" fill="#2c5d4d" opacity=".45"/>
</svg>
