<svg xmlns="http://www.w3.org/2000/svg" viewBox="0 0 420 260">
  <defs>
    <linearGradient id="bg" x1="0" x2="1" y1="0" y2="1">
      <stop offset="0%" stop-color="#eef8f1"/>
      <stop offset="100%" stop-color="#9ec7b1"/>
    </linearGradient>
  </defs>
  <rect width="420" height="260" rx="28" fill="url(#bg)"/>
  <path d="M0 168c73-40 127-48 190-28 50 16 73 49 120 51 35 2 67-12 110-34v79H0v-68Z" fill="#5b8f63"/>
  <path d="M0 196c79-25 153-18 221 16 38 18 70 24 110 17 27-5 52-15 89-33v40H0v-40Z" fill="#244f43"/>
  <path d="M161 150c16-33 52-59 101-58 37 1 66 18 85 46-23 14-37 34-54 52-18 18-44 33-82 35-31 1-61-8-89-21 15-16 29-35 39-54Z" fill="#dff1e5" opacity=".88"/>
  <path d="M187 161c13-15 30-21 49-21 28 0 44 12 63 33-11 8-18 19-25 29-9 12-25 23-49 24-19 0-38-5-58-14 7-9 13-17 20-25Z" fill="#9ec7b1"/>
  <circle cx="112" cy="70" r="22" fill="#f5efcb"/>
  <path d="M87 226c22-20 39-31 58-38 8-3 15-5 24-7-12 18-29 31-49 40-11 3-21 5-33 5Z" fill="#15392f" opacity=".45"/>
</svg>
